<?xml version="1.0" encoding="utf-8"?>
<!-- Generator: Adobe Illustrator 25.3.0, SVG Export Plug-In . SVG Version: 6.00 Build 0)  -->
<svg version="1.1" id="Layer_1" xmlns="http://www.w3.org/2000/svg" xmlns:xlink="http://www.w3.org/1999/xlink" x="0px" y="0px"
	 viewBox="0 0 288.71 126.89" style="enable-background:new 0 0 288.71 126.89;" xml:space="preserve">
<style type="text/css">
	.st0{fill:#FEFEFE;}
</style>
<path class="st0" d="M144.28,4.86c53.05,0.94,99.28,19.02,138.2,55.45c2.65,2.48,2.96,3.71,0.12,6.44
	c-76.69,73.75-200.02,73.71-276.57-0.06c-3-2.89-2.2-4.11,0.29-6.44C45.12,23.94,91.19,5.88,144.28,4.86z M144.1,21.58
	c-22.17-0.01-39.91,17.73-39.92,39.9c-0.01,22.17,17.74,40.01,39.84,40.03c21.95,0.03,40.05-18.01,40.07-39.95
	C184.12,39.61,166.1,21.59,144.1,21.58z"/>
</svg>
